<?xml version="1.0" encoding="utf-8"?>
<!-- Generator: Adobe Illustrator 22.1.0, SVG Export Plug-In . SVG Version: 6.00 Build 0)  -->
<svg version="1.1" id="Calque_1" xmlns="http://www.w3.org/2000/svg" xmlns:xlink="http://www.w3.org/1999/xlink" x="0px" y="0px"
	 viewBox="0 0 44 44" style="enable-background:new 0 0 44 44;" xml:space="preserve">
<style type="text/css">
	.st0{fill:#FFFFFF;}
</style>
<path class="st0" d="M22,0C9.8,0,0,9.8,0,22s9.8,22,22,22s22-9.8,22-22S34.2,0,22,0z M25.2,22.4l7.5,7.5c0.2,0.2,0.3,0.5,0.3,0.7
	s-0.1,0.5-0.3,0.7l-1.4,1.4c-0.2,0.2-0.5,0.3-0.7,0.3c-0.3,0-0.5-0.1-0.7-0.3l-7.5-7.5c-0.2-0.2-0.5-0.2-0.7,0l-7.5,7.5
	C14,32.9,13.7,33,13.5,33c-0.3,0-0.5-0.1-0.7-0.3l-1.4-1.4c-0.2-0.2-0.3-0.5-0.3-0.7s0.1-0.5,0.3-0.7l7.5-7.5c0.2-0.2,0.2-0.5,0-0.7
	l-7.5-7.5c-0.2-0.2-0.3-0.5-0.3-0.7s0.1-0.5,0.3-0.7l1.4-1.4c0.2-0.2,0.5-0.3,0.7-0.3s0.5,0.1,0.7,0.3l7.5,7.5
	c0.2,0.2,0.5,0.2,0.7,0l7.5-7.5c0.2-0.2,0.5-0.3,0.7-0.3c0.3,0,0.5,0.1,0.7,0.3l1.4,1.4c0.2,0.2,0.3,0.5,0.3,0.7s-0.1,0.5-0.3,0.7
	l-7.5,7.5C25,21.8,25,22.2,25.2,22.4z"/>
</svg>
